<?xml version="1.0" encoding="UTF-8"?><svg id="a" xmlns="http://www.w3.org/2000/svg" viewBox="0 0 953.684 982.611"><path d="M842.287,730.89H111.397V0h730.89v730.89ZM444.964,579.445h245.878V151.445h-428v245.878c0,100.583,81.539,182.122,182.122,182.122Z" fill="#274d29"/><path d="M14.52,930.91v-148.722c0-1.539,1.1-2.64,2.64-2.64h25.74c1.54,0,2.64,1.101,2.64,2.64v123.642c0,.659.44,1.1,1.1,1.1h71.94c1.54,0,2.64,1.1,2.64,2.64v21.341c0,1.54-1.1,2.64-2.64,2.64H17.16c-1.54,0-2.64-1.1-2.64-2.64Z" fill="#274d29"/><path d="M156.637,974.69v-20.24c0-1.54,1.1-2.641,2.64-2.641,17.16-.22,24.42-2.859,27.94-17.6.22-.44.22-.66,0-1.32l-35.86-109.561c-.66-1.979.44-3.08,2.2-3.08h27.28c1.54,0,2.64.66,3.08,2.2l18.48,71.28c.22.88,1.1.88,1.32,0l18.48-71.28c.44-1.54,1.54-2.2,3.08-2.2h26.84c1.76,0,2.64,1.101,1.98,3.08l-38.06,114.4c-9.9,29.48-18.26,39.601-56.32,39.601h-1.54c-.88,0-1.54-1.1-1.54-2.64Z" fill="#274d29"/><path d="M390.715,858.749v72.161c0,1.54-1.1,2.64-2.64,2.64h-25.74c-1.54,0-2.64-1.1-2.64-2.64v-65.78c0-11.66-7.04-19.801-17.82-19.801s-18.26,7.92-18.26,19.801v65.78c0,1.54-1.1,2.64-2.64,2.64h-25.74c-1.54,0-2.64-1.1-2.64-2.64v-107.801c0-1.54,1.1-2.641,2.64-2.641h25.74c1.54,0,2.64,1.101,2.64,2.641v7.7c0,.88.66,1.319,1.1.66,6.16-8.801,15.18-12.761,26.84-12.761,23.1,0,39.16,14.96,39.16,40.04Z" fill="#274d29"/><path d="M435.814,902.309c-2.64-7.7-3.74-16.5-3.74-25.96,0-11,1.54-19.141,3.74-25.521,7.04-19.8,25.52-32.12,48.84-32.12,24.2,0,42.9,13.641,48.621,31.021,1.1,3.3,1.76,5.939,1.76,7.92.22,1.54-.66,2.64-2.2,2.86l-25.3,3.739c-1.541.221-2.641-.439-3.08-2.199l-.66-3.521c-1.98-7.26-9.24-13.2-19.36-13.2-9.46,0-16.06,5.061-18.7,13.2-1.54,4.18-2.42,10.34-2.42,18.04,0,8.141.88,14.08,2.2,18.04,2.64,8.58,9.24,14.08,18.92,14.08,9.46,0,16.5-5.28,19.14-13.64.221-.44.221-.88.221-1.32.22-.22.22-.439.22-.66.22-1.76,1.54-2.42,3.08-2.2l25.3,3.96c1.541.221,2.42,1.32,2.2,2.86-.22,1.76-.659,3.96-1.319,6.16-6.381,19.8-25.74,31.46-48.621,31.46-23.54,0-41.58-12.76-48.84-33Z" fill="#274d29"/><path d="M673.191,884.049c-.22,1.76-1.32,2.64-2.859,2.64h-67.98c-.66,0-1.32.44-1.1,1.101.659,3.3,1.539,6.159,2.639,8.8,3.521,7.479,10.561,12.319,23.32,12.319,10.121-.22,17.16-4.84,22-11.439,1.101-1.54,2.42-1.76,3.74-.44l15.621,15.62c1.1,1.101,1.319,2.42.219,3.74-9.68,12.32-25.959,19.141-44.439,18.92-25.08,0-42.461-12.54-49.94-32.56-3.08-7.48-4.62-16.5-4.62-26.841-.22-8.359.88-16.5,3.08-23.32,6.82-20.68,24.641-34.1,47.961-34.1,30.14,0,47.52,19.36,51.479,46.86.88,5.939,1.101,12.1.88,18.7ZM602.791,858.309c-.66,2.2-1.1,4.399-1.539,7.04,0,.66.439,1.1,1.1,1.1h38.061c.659,0,1.1-.439.879-1.1-.439-2.42-.66-4.4-1.1-6.16-2.641-8.8-9.46-13.86-19.359-13.86-9.461,0-15.181,4.62-18.041,12.98Z" fill="#274d29"/><path d="M782.529,820.468h25.521c1.54,0,2.64,1.101,2.64,2.641v107.801c0,1.54-1.1,2.64-2.64,2.64h-25.521c-1.54,0-2.64-1.1-2.64-2.64v-7.48c0-.88-.66-1.1-1.32-.22-5.72,7.7-14.74,11.88-27.5,11.88-21.12,0-38.28-13.2-38.28-38.5v-73.48c0-1.54,1.1-2.641,2.64-2.641h25.521c1.54,0,2.64,1.101,2.64,2.641v65.78c0,11.66,6.601,19.8,17.82,19.8s18.48-8.14,18.48-19.8v-65.78c0-1.54,1.1-2.641,2.64-2.641Z" fill="#274d29"/><path d="M850.726,902.309v-2.2c0-1.54,1.101-2.64,2.641-2.64h24.42c1.54,0,2.64,1.1,2.64,2.64v.221c0,6.38,7.7,11.659,18.7,11.659,10.12,0,16.721-4.399,16.721-10.34,0-8.8-16.94-8.58-33.221-15.18-14.74-5.061-30.8-12.54-30.8-32.12,0-22,18.92-35.421,46.2-35.421,28.38,0,47.08,14.74,47.08,35.641,0,1.54-1.1,2.64-2.64,2.64h-23.761c-1.54,0-2.64-1.1-2.64-2.64,0-6.38-6.601-11.44-17.82-11.44-9.68,0-16.72,3.521-16.72,9.9,0,8.8,15.399,9.46,31.68,14.521,17.16,5.06,33.66,12.76,33.66,33,0,22.22-19.14,34.54-47.521,34.54-29.92,0-48.62-13.64-48.62-32.78Z" fill="#274d29"/></svg>