<?xml version="1.0" encoding="UTF-8"?><svg id="a" xmlns="http://www.w3.org/2000/svg" viewBox="0 0 3980 967.805"><path d="M967.805,967.805H0V0h967.805v967.805ZM441.692,767.27h325.578V200.535H200.535v325.578c0,133.187,107.969,241.156,241.156,241.156Z" fill="#dcd1b8"/><path d="M1077.132,723.291v-459.675c0-4.76,3.4-8.16,8.16-8.16h79.559c4.76,0,8.16,3.4,8.16,8.16v382.156c0,2.04,1.36,3.399,3.4,3.399h222.358c4.76,0,8.16,3.4,8.16,8.16v65.959c0,4.76-3.4,8.16-8.16,8.16h-313.477c-4.76,0-8.16-3.4-8.16-8.16Z" fill="#dcd1b8"/><path d="M1516.402,858.61v-62.559c0-4.76,3.4-8.16,8.16-8.16,53.04-.68,75.479-8.84,86.359-54.399.68-1.36.68-2.04,0-4.08l-110.839-338.637c-2.04-6.119,1.36-9.52,6.8-9.52h84.319c4.76,0,8.16,2.04,9.52,6.8l57.12,220.317c.68,2.721,3.4,2.721,4.08,0l57.119-220.317c1.36-4.76,4.76-6.8,9.52-6.8h82.959c5.44,0,8.16,3.4,6.12,9.52l-117.639,353.597c-30.6,91.119-56.439,122.398-174.078,122.398h-4.76c-2.72,0-4.76-3.399-4.76-8.16Z" fill="#dcd1b8"/><path d="M2239.912,500.254v223.037c0,4.76-3.4,8.16-8.16,8.16h-79.56c-4.76,0-8.159-3.4-8.159-8.16v-203.317c0-36.04-21.76-61.199-55.08-61.199s-56.439,24.479-56.439,61.199v203.317c0,4.76-3.4,8.16-8.16,8.16h-79.559c-4.76,0-8.16-3.4-8.16-8.16v-333.196c0-4.76,3.4-8.16,8.16-8.16h79.559c4.76,0,8.16,3.4,8.16,8.16v23.8c0,2.72,2.04,4.08,3.4,2.04,19.039-27.2,46.919-39.439,82.959-39.439,71.398,0,121.039,46.239,121.039,123.759Z" fill="#dcd1b8"/><path d="M2379.314,634.893c-8.16-23.8-11.56-51-11.56-80.239,0-34,4.761-59.159,11.56-78.88,21.76-61.199,78.879-99.278,150.959-99.278,74.799,0,132.598,42.159,150.278,95.879,3.399,10.2,5.44,18.359,5.44,24.479.68,4.76-2.041,8.16-6.801,8.84l-78.199,11.561c-4.76.68-8.16-1.36-9.52-6.801l-2.04-10.88c-6.12-22.439-28.56-40.799-59.839-40.799-29.24,0-49.641,15.64-57.8,40.799-4.761,12.92-7.479,31.96-7.479,55.76,0,25.16,2.719,43.52,6.799,55.76,8.16,26.52,28.561,43.52,58.48,43.52,29.239,0,50.999-16.32,59.158-42.16.681-1.359.681-2.72.681-4.08.681-.68.681-1.359.681-2.04.68-5.439,4.76-7.479,9.52-6.8l78.199,12.24c4.76.68,7.479,4.08,6.799,8.84-.68,5.44-2.039,12.24-4.079,19.04-19.72,61.199-79.56,97.238-150.278,97.238-72.76,0-128.52-39.439-150.959-101.998Z" fill="#dcd1b8"/><path d="M3113.021,578.453c-.68,5.439-4.08,8.159-8.84,8.159h-210.117c-2.041,0-4.08,1.36-3.4,3.4,2.039,10.2,4.76,19.04,8.16,27.2,10.879,23.119,32.639,38.079,72.078,38.079,31.281-.68,53.041-14.96,68-35.359,3.4-4.76,7.48-5.44,11.561-1.36l48.279,48.279c3.398,3.4,4.08,7.48.68,11.561-29.92,38.079-80.24,59.159-137.359,58.479-77.52,0-131.238-38.759-154.357-100.639-9.52-23.119-14.279-50.999-14.279-82.959-.682-25.84,2.719-50.999,9.52-72.079,21.08-63.919,76.158-105.398,148.238-105.398,93.158,0,146.879,59.839,159.117,144.838,2.721,18.36,3.4,37.399,2.721,57.8ZM2895.424,498.894c-2.039,6.8-3.4,13.6-4.76,21.76,0,2.04,1.359,3.4,3.4,3.4h117.639c2.039,0,3.398-1.36,2.719-3.4-1.359-7.479-2.039-13.6-3.398-19.04-8.16-27.199-29.24-42.839-59.84-42.839-29.24,0-46.92,14.279-55.76,40.119Z" fill="#dcd1b8"/><path d="M3450.977,381.935h78.879c4.76,0,8.16,3.4,8.16,8.16v333.196c0,4.76-3.4,8.16-8.16,8.16h-78.879c-4.76,0-8.16-3.4-8.16-8.16v-23.119c0-2.721-2.041-3.4-4.08-.681-17.68,23.8-45.561,36.72-85,36.72-65.279,0-118.318-40.8-118.318-118.998v-227.118c0-4.76,3.4-8.16,8.16-8.16h78.879c4.76,0,8.16,3.4,8.16,8.16v203.318c0,36.039,20.4,61.199,55.08,61.199s57.119-25.16,57.119-61.199v-203.318c0-4.76,3.4-8.16,8.16-8.16Z" fill="#dcd1b8"/><path d="M3661.77,634.893v-6.801c0-4.76,3.4-8.159,8.16-8.159h75.479c4.76,0,8.16,3.399,8.16,8.159v.681c0,19.72,23.799,36.039,57.799,36.039,31.279,0,51.68-13.6,51.68-31.959,0-27.2-52.359-26.521-102.68-46.92-45.559-15.64-95.197-38.76-95.197-99.278,0-68,58.479-109.479,142.797-109.479,87.721,0,145.52,45.56,145.52,110.159,0,4.76-3.4,8.16-8.16,8.16h-73.439c-4.76,0-8.16-3.4-8.16-8.16,0-19.72-20.398-35.359-55.078-35.359-29.92,0-51.68,10.88-51.68,30.6,0,27.199,47.6,29.239,97.918,44.879,53.039,15.64,104.039,39.439,104.039,101.999,0,68.68-59.16,106.759-146.879,106.759-92.479,0-150.277-42.159-150.277-101.318Z" fill="#dcd1b8"/></svg>