<?xml version="1.0" encoding="UTF-8"?><svg id="a" xmlns="http://www.w3.org/2000/svg" viewBox="0 0 882.452 741.762"><path d="M9.239,298.645c159.414-384.859,704.56-384.859,863.974,0" fill="none" stroke="#dcd1b8" stroke-miterlimit="10" stroke-width="20"/><path d="M9.239,289.662c159.414,384.859,704.56,384.859,863.974,0" fill="none" stroke="#dcd1b8" stroke-miterlimit="10" stroke-width="20"/><path d="M191.364,263.046c-2.412,2.723-4.79,5.496-7.133,8.318-16.156-13.416-32.312-26.831-48.469-40.246,2.785-3.354,5.611-6.65,8.478-9.887,15.708,13.938,31.416,27.877,47.124,41.815Z" fill="#b7c49a" stroke="#b7c49a" stroke-miterlimit="10"/><path d="M255.078,207.198c-2.872,1.931-5.72,3.911-8.543,5.941-12.239-17.076-24.479-34.152-36.718-51.228,3.355-2.413,6.74-4.767,10.154-7.062,11.702,17.449,23.405,34.899,35.107,52.348Z" fill="#b7c49a" stroke="#b7c49a" stroke-miterlimit="10"/><path d="M327.956,170.362c-3.175,1.139-6.336,2.327-9.482,3.565-7.717-19.541-15.434-39.082-23.151-58.623,3.739-1.471,7.497-2.884,11.271-4.237,7.121,19.765,14.242,39.53,21.362,59.295Z" fill="#b7c49a" stroke="#b7c49a" stroke-miterlimit="10"/><path d="M406.238,152.538c-3.322.347-6.64.743-9.952,1.188-2.825-20.811-5.65-41.622-8.476-62.433,3.937-.53,7.881-1,11.829-1.412,2.2,20.886,4.399,41.771,6.599,62.657Z" fill="#b7c49a" stroke="#b7c49a" stroke-miterlimit="10"/><path d="M486.166,153.726c-3.312-.446-6.63-.842-9.952-1.188l6.599-62.657c3.949.412,7.892.883,11.829,1.412-2.825,20.811-5.65,41.622-8.476,62.433Z" fill="#b7c49a" stroke="#b7c49a" stroke-miterlimit="10"/><path d="M563.978,173.926c-3.146-1.238-6.307-2.426-9.482-3.565,7.121-19.765,14.242-39.53,21.363-59.295,3.774,1.353,7.532,2.766,11.271,4.237-7.717,19.541-15.434,39.082-23.151,58.623Z" fill="#b7c49a" stroke="#b7c49a" stroke-miterlimit="10"/><path d="M635.917,213.139c-2.823-2.03-5.671-4.01-8.543-5.941,11.702-17.449,23.405-34.899,35.107-52.348,3.413,2.295,6.798,4.649,10.154,7.062-12.239,17.076-24.479,34.152-36.718,51.228Z" fill="#b7c49a" stroke="#b7c49a" stroke-miterlimit="10"/><path d="M698.221,271.364c-2.343-2.822-4.721-5.595-7.133-8.318,15.708-13.938,31.416-27.877,47.124-41.815,2.866,3.237,5.693,6.532,8.478,9.887-16.156,13.415-32.313,26.831-48.469,40.247Z" fill="#b7c49a" stroke="#b7c49a" stroke-miterlimit="10"/><circle cx="441.053" cy="309.473" r="79.24" fill="none" stroke="#dcd1b8" stroke-miterlimit="10" stroke-width="16"/><circle cx="441.053" cy="309.473" r="29.715" fill="#6e7d58" stroke="#6e7d58" stroke-miterlimit="10" stroke-width="16"/><rect x="325.957" y="472.422" width="230.192" height="10.962" fill="#b7c49a" stroke="#b7c49a" stroke-miterlimit="10"/><rect x="556.15" y="439.538" width="10.962" height="43.846" fill="#b7c49a" stroke="#b7c49a" stroke-miterlimit="10"/><rect x="567.111" y="439.538" width="21.923" height="10.962" fill="#b7c49a" stroke="#b7c49a" stroke-miterlimit="10"/><rect x="589.034" y="406.653" width="10.962" height="43.846" fill="#b7c49a" stroke="#b7c49a" stroke-miterlimit="10"/><rect x="599.996" y="406.653" width="54.808" height="10.962" fill="#b7c49a" stroke="#b7c49a" stroke-miterlimit="10"/><rect x="314.996" y="439.538" width="10.962" height="43.846" fill="#b7c49a" stroke="#b7c49a" stroke-miterlimit="10"/><rect x="282.111" y="439.538" width="32.885" height="10.962" fill="#b7c49a" stroke="#b7c49a" stroke-miterlimit="10"/><rect x="282.111" y="406.653" width="10.962" height="32.885" fill="#b7c49a" stroke="#b7c49a" stroke-miterlimit="10"/><rect x="227.303" y="406.653" width="54.808" height="10.962" fill="#b7c49a" stroke="#b7c49a" stroke-miterlimit="10"/><rect x="397.207" y="483.384" width="87.692" height="21.923" fill="#b7c49a" stroke="#b7c49a" stroke-miterlimit="10"/><path d="M303.686,651.262c0,16.257-11.649,27.138-29.058,27.138h-18.049c-.384,0-.64.256-.64.64v32.642c0,.896-.64,1.536-1.536,1.536h-14.977c-.896,0-1.536-.64-1.536-1.536v-86.66c0-.896.64-1.536,1.536-1.536h35.97c17.025,0,28.29,11.137,28.29,27.777ZM285.765,651.645c0-7.552-5.249-12.544-13.057-12.544h-16.129c-.384,0-.64.256-.64.64v23.554c0,.384.256.64.64.64h16.129c7.808,0,13.057-4.992,13.057-12.289Z" fill="#dcd1b8"/><path d="M311.491,693.248c-1.152-3.841-1.792-8.448-1.792-13.057,0-4.864.64-9.729,1.792-13.568,3.968-12.545,14.592-20.226,29.057-20.226,14.208,0,24.449,7.681,28.417,20.097,1.28,3.969,2.048,8.705,2.048,13.441,0,4.608-.64,9.088-1.792,12.929-3.712,13.185-14.337,21.377-28.801,21.377s-25.217-8.064-28.929-20.993ZM351.813,689.151c.64-2.56,1.024-5.76,1.024-8.96,0-3.456-.384-6.784-1.024-9.089-1.664-5.76-5.76-9.216-11.521-9.216s-9.729,3.584-11.393,9.216c-.768,2.305-1.024,5.633-1.024,9.089,0,3.328.256,6.656.896,8.96,1.664,5.889,5.76,9.601,11.648,9.601,5.76,0,9.729-3.712,11.393-9.601Z" fill="#dcd1b8"/><path d="M422.597,648.317c.768.385.896,1.152.768,1.921l-2.56,14.592c-.128,1.024-.769,1.28-1.792.896-1.792-.512-4.48-.896-7.425-.384-5.76.512-11.008,4.48-11.008,11.393v34.945c0,.896-.64,1.536-1.536,1.536h-14.977c-.896,0-1.536-.64-1.536-1.536v-62.723c0-.896.64-1.536,1.536-1.536h14.977c.896,0,1.536.64,1.536,1.536v4.864c0,.512.384.768.64.384,3.2-4.736,7.936-7.681,14.208-7.681,3.328,0,5.632.769,7.168,1.792Z" fill="#dcd1b8"/><path d="M467.14,661.887h-12.289c-.384,0-.64.256-.64.64v27.138c0,5.632,2.176,8.32,7.297,8.32h4.352c.896,0,1.536.64,1.536,1.536v12.16c0,.896-.512,1.536-1.536,1.664-2.688.128-5.376.256-7.809.256-13.057,0-21.121-3.072-21.121-16.769v-34.306c0-.384-.256-.64-.64-.64h-7.424c-.896,0-1.536-.641-1.536-1.536v-11.393c0-.896.64-1.536,1.536-1.536h7.424c.384,0,.64-.256.64-.641v-15.232c0-.896.641-1.536,1.536-1.536h14.209c.896,0,1.536.641,1.536,1.536v15.232c0,.385.256.641.64.641h12.289c.896,0,1.536.64,1.536,1.536v11.393c0,.896-.641,1.536-1.536,1.536Z" fill="#dcd1b8"/><path d="M476.865,682.111v-27.394c0-19.2,13.44-32.129,33.666-32.129s33.793,12.929,33.793,32.129v27.394c0,19.457-13.568,32.514-33.793,32.514s-33.666-13.057-33.666-32.514ZM526.275,682.751v-28.161c0-9.984-6.272-16.513-15.744-16.513-9.345,0-15.617,6.528-15.617,16.513v28.161c0,9.856,6.272,16.385,15.617,16.385,9.472,0,15.744-6.528,15.744-16.385Z" fill="#6e7d58"/><path d="M542.016,737.794v-12.16c0-1.024.641-1.536,1.664-1.408,10.113.384,13.186-2.561,13.186-10.753v-64.515c0-.896.64-1.536,1.535-1.536h14.978c.896,0,1.536.64,1.536,1.536v64.259c0,20.353-6.913,26.625-31.362,26.113-1.023,0-1.536-.64-1.536-1.536ZM555.841,629.885c0-6.017,4.224-10.112,10.112-10.112s10.112,4.096,10.112,10.112c0,5.761-4.352,10.112-10.112,10.112-5.889,0-10.112-4.352-10.112-10.112Z" fill="#6e7d58"/><path d="M588.224,693.248c-1.152-3.841-1.792-8.448-1.792-13.057,0-4.864.64-9.729,1.792-13.568,3.968-12.545,14.593-20.226,29.057-20.226,14.209,0,24.449,7.681,28.418,20.097,1.28,3.969,2.048,8.705,2.048,13.441,0,4.608-.64,9.088-1.792,12.929-3.712,13.185-14.337,21.377-28.802,21.377s-25.217-8.064-28.929-20.993ZM628.545,689.151c.641-2.56,1.024-5.76,1.024-8.96,0-3.456-.384-6.784-1.024-9.089-1.664-5.76-5.76-9.216-11.521-9.216s-9.729,3.584-11.393,9.216c-.768,2.305-1.023,5.633-1.023,9.089,0,3.328.256,6.656.896,8.96,1.664,5.889,5.761,9.601,11.648,9.601,5.761,0,9.729-3.712,11.393-9.601Z" fill="#6e7d58"/></svg>